PathFileType	4	(X/Y/Z)	Patient4_TMGait_0pt4_03_right_37.trc.trc
DataRate	CameraRate	NumFrames	NumMarkers	Units	OrigDataRate	OrigDataStartFrame	OrigNumFrames
74.074074074074	74.074074074074	4	33	mm	74.074074074074	124	       141
Frame#	Time	Sacral			L.Shoulder			Chest			R.Shoulder			Neck			R.ASIS			L.ASIS			R.Thigh.Superior			R.Thigh.Lateral			R.Thigh.Inferior			R.Patella			L.Thigh.Superior			L.Thigh.Lateral			L.Thigh.Inferior			L.Patella			L.Shank.Superior			L.Shank.Lateral			L.Shank.Inferior			R.Shank.Superior			R.Shank.Lateral			R.Shank.Inferior			R.Heel			R.Midfoot.Superior			R.Midfoot.Lateral			R.Toe			L.Heel			L.Midfoot.Lateral			L.Midfoot.Superior			L.Toe			L.Elbow			L.Wrist			R.Elbow			R.Wrist			
		X1	Y1	Z1	X2	Y2	Z2	X3	Y3	Z3	X4	Y4	Z4	X5	Y5	Z5	X6	Y6	Z6	X7	Y7	Z7	X8	Y8	Z8	X9	Y9	Z9	X10	Y10	Z10	X11	Y11	Z11	X12	Y12	Z12	X13	Y13	Z13	X14	Y14	Z14	X15	Y15	Z15	X16	Y16	Z16	X17	Y17	Z17	X18	Y18	Z18	X19	Y19	Z19	X20	Y20	Z20	X21	Y21	Z21	X22	Y22	Z22	X23	Y23	Z23	X24	Y24	Z24	X25	Y25	Z25	X26	Y26	Z26	X27	Y27	Z27	X28	Y28	Z28	X29	Y29	Z29	X30	Y30	Z30	X31	Y31	Z31	X32	Y32	Z32	X33	Y33	Z33	

124	50.030500000000	875.636279984367	1000.445486619157	436.110865416204	1065.539033576197	1430.389563879620	262.774855828044	1149.674601390358	1364.723044253305	434.847761439099	1046.702564463357	1436.948361257255	598.453902603100	1026.710600152932	1492.913135016401	417.518650055516	1097.345029020077	943.086489976066	573.201902588353	1100.910272238672	957.575226101345	296.748812056872	1159.540326080668	752.094199363623	549.173247166075	1096.408324797048	636.508073876933	617.961118422822	1181.734759464308	591.167651080452	539.888114603272	1201.562104322236	509.081741271051	552.855557771173	1107.217193125805	730.676145916593	323.456766023916	993.742460954878	634.202032019228	255.481324203721	1055.660438494907	541.903938526429	318.566377575140	1041.741630782993	475.370350217297	325.616016123652	1007.854400315433	408.456483216170	316.561945440358	904.201545958129	305.547086348857	266.595992308717	943.504474824610	187.512417883900	334.059712512963	1183.630034759898	419.951737154748	566.489015681680	1125.674381628719	311.151443875370	633.512371845022	1186.713476591315	220.112064047302	580.951538522768	1081.220598131599	43.200669041730	562.286322807080	1249.804014490336	103.812708900633	592.192400557879	1167.586183342273	38.934027588530	633.102746748781	1372.511077099451	59.987809917733	614.990187466958	806.879669929492	39.119647638481	383.132905308062	874.176339256208	34.962908385316	297.160967135671	959.993676619992	95.321179217747	319.511765373290	1085.969636638666	41.078838079326	279.692337771825	1118.027889233758	1094.627666519010	121.393689812451	1371.201170264786	1059.742593725543	150.408198581091	921.932868016227	1114.677871977200	710.473293557052	908.855128618830	854.063831606831	721.505383746762	
125	50.044000000000	877.778183733167	999.101234716686	439.658875042396	1065.154011772778	1429.491893977521	265.823768284854	1150.263035010666	1364.486530636091	437.702453151022	1047.445044809541	1436.302380646770	601.659627819767	1026.696055437661	1492.035585261843	420.644020892917	1100.266796960492	942.018152969068	575.930733462507	1102.786151428687	957.023068715588	299.545605197186	1162.554209949250	750.786273225122	551.238329463435	1097.853720687826	634.803203196055	618.303002701472	1183.758251174915	590.081451415806	540.662855074972	1202.021866563850	507.096517598103	552.600004332722	1108.160044774591	729.615899099901	325.078268080766	993.652096401911	633.879860289592	257.711604207721	1055.434118646802	540.949490699241	319.975963549660	1041.410688873258	474.024346586640	326.857020499256	1006.381009893675	407.649208109973	317.776484449808	901.167304780705	306.221318821190	267.773726087852	939.255175569961	187.267486311923	334.456180387275	1183.403951738799	417.432328586689	565.917954974982	1123.972513435010	309.112707973712	632.339808297616	1183.308072996025	217.498461159553	579.275002761591	1074.757824421086	42.904791631875	560.179451161303	1243.853108332875	101.210421336844	590.124191220398	1160.758070784121	38.128210456778	631.457632524070	1366.216222001410	56.232151672838	613.828747454389	801.412360336349	39.465758989034	383.020919023793	868.803638463238	35.067845255789	297.173713357235	954.747850075339	95.337410509480	319.495438950761	1080.630319511361	40.812307333612	279.627864098098	1117.165607359646	1093.415082191027	124.600568029451	1370.736667845808	1060.901612412200	152.042285964633	919.878386195972	1115.409310211310	712.682341222295	904.710409170545	854.661872039860	722.174456584257	
126	50.057500000000	879.910776354574	997.957046166450	443.287757647247	1064.785867633678	1428.756443830656	268.947449701935	1150.853589923608	1364.465101148191	440.662369565220	1048.137616879935	1435.840146109173	604.961670931174	1026.689521104479	1491.360228176890	423.841913443192	1103.218569425090	941.236017530572	578.802802839443	1104.723511883441	956.656460318917	302.465015816071	1165.719777494647	749.818834037797	553.246213338496	1099.812134365484	633.578283141361	618.923972383706	1186.038183510574	589.297735466258	541.505667928466	1202.867951280803	505.329131235249	552.613747707991	1109.253342977462	728.761794010735	326.685190649874	993.793982458164	633.681597296071	260.065130087651	1055.690899068540	540.132177544947	321.326311027166	1041.648638783556	472.693518076566	327.983100348207	1005.327324216754	406.908358409612	318.930853069114	898.381220668998	307.136907999714	269.002832549510	935.182032096905	187.199447459485	334.795722400526	1183.418581707335	415.234303715410	565.620151671902	1122.632760548370	307.513573110411	631.762778388557	1179.904425479053	215.206104788557	578.019162735355	1068.106888260652	42.734994239488	558.757956920461	1237.652522555099	99.164361430849	588.585027557043	1153.816838561532	37.601917678218	630.435154534455	1359.773147018644	53.149383188870	613.162684059424	795.963216488244	40.139823540691	382.862299039695	863.458975029368	35.293861490645	297.169231030689	949.618877493077	95.393959502959	319.389072211879	1075.314484989054	40.510380124046	279.543057072048	1115.794519400904	1092.114364874095	128.120581333247	1369.719715906259	1060.816693329767	153.734595801116	918.755648541280	1115.821567628506	714.943345896871	902.248948271188	854.866758700254	723.020327470030	
127	50.071000000000	882.012782637611	997.079064252905	446.972665773667	1064.469248090181	1428.252145344982	272.126211479884	1151.447027135840	1364.690951034669	443.706296711080	1048.782596083672	1435.610986908335	608.325502859874	1026.696892618317	1490.940372581345	427.082620295623	1106.136880775111	940.791084827565	581.813278193683	1106.706067138980	956.532705330845	305.489572759188	1168.887621139146	749.203923395053	555.203185560953	1102.184646496140	632.847028950369	619.917736804096	1188.401131726026	588.789041115909	542.468016436389	1203.946222687154	503.831961591810	552.980227328791	1110.507875704376	728.185253270551	328.288767901846	994.254544079844	633.626460246935	262.504454346946	1056.562716972692	539.496661456321	322.581785379759	1042.582793366669	471.407386970422	328.910652696551	1004.801149425685	406.261949192608	319.959808249758	895.934167218181	308.354169191558	270.247108484892	931.358177423124	187.372148221710	335.034033413131	1183.578893013965	413.416100568688	565.647639023090	1121.637696344087	306.354047845383	631.787403430179	1176.605468451377	213.308656265566	577.199269826282	1061.580227640480	42.661298627554	557.968364404933	1231.487319578149	97.735828556865	587.559486871789	1147.082458960620	37.311730418834	629.957091319986	1353.467659442019	50.805039028372	612.904376951670	790.568652092747	41.283516968791	382.647096900116	858.159147895973	35.709143337417	297.138224177303	944.657155139191	95.509901646190	319.157466242016	1070.019250999336	40.177807662466	279.437812203376	1113.914355380592	1090.803019722768	131.956678408130	1368.144374775164	1059.472590795419	155.500245128908	918.611761786850	1115.927327724152	717.277528372763	901.532620202826	854.702713712023	724.093387506997	
